<svg xmlns="http://www.w3.org/2000/svg" version="1.1" xmlns:xlink="http://www.w3.org/1999/xlink" width="512" height="512" x="0" y="0" viewBox="0 0 512.011 512" style="enable-background:new 0 0 512 512" xml:space="preserve" class=""><g transform="matrix(1,0,0,1,0,40)"><path fill="#f44336" d="M208.027 426.71c-1.707 0-3.457-.194-5.183-.64-11.438-2.86-18.39-14.445-15.531-25.879l96-384c2.859-11.433 14.421-18.43 25.855-15.53 11.434 2.859 18.39 14.444 15.531 25.878l-96 384c-2.433 9.707-11.113 16.172-20.672 16.172zm0 0" opacity="1" data-original="#f44336" class=""></path><g fill="#607d8b"><path d="M149.34 362.71a21.27 21.27 0 0 1-15.082-6.253l-128-128c-8.344-8.34-8.344-21.82 0-30.164l128-128c8.34-8.34 21.82-8.34 30.164 0 8.34 8.344 8.34 21.824 0 30.164L51.504 213.375l112.918 112.918c8.34 8.344 8.34 21.824 0 30.164a21.277 21.277 0 0 1-15.082 6.254zM362.672 362.71a21.277 21.277 0 0 1-15.082-6.253c-8.344-8.34-8.344-21.82 0-30.164l112.918-112.918L347.59 100.457c-8.344-8.34-8.344-21.82 0-30.164 8.34-8.34 21.824-8.34 30.164 0l128 128c8.344 8.344 8.344 21.824 0 30.164l-128 128a21.277 21.277 0 0 1-15.082 6.254zm0 0" fill="#607d8b" opacity="1" data-original="#607d8b" class=""></path></g></g></svg>